<svg width="24" height="24" viewBox="0 0 24 24" fill="none" xmlns="http://www.w3.org/2000/svg">
<path d="M13 4H16C16.5304 4 17.0391 4.21071 17.4142 4.58579C17.7893 4.96086 18 5.46957 18 6V20M2 20H5M5 20L11.758 21.689C11.9054 21.7258 12.0592 21.7285 12.2078 21.6969C12.3564 21.6653 12.4958 21.6004 12.6155 21.5069C12.7352 21.4134 12.8321 21.2938 12.8987 21.1573C12.9653 21.0208 13 20.8709 13 20.719V4.56201C12.9998 4.2582 12.9304 3.95741 12.797 3.68443C12.6637 3.41144 12.4699 3.17243 12.2303 2.98553C11.9908 2.79863 11.7118 2.66875 11.4146 2.60577C11.1174 2.54278 10.8098 2.54834 10.515 2.62201L6.515 3.62201C6.08232 3.73017 5.69821 3.97984 5.42371 4.33134C5.1492 4.68285 5.00007 5.11602 5 5.56201V20ZM13 20H22M10 12V12.01" stroke="#09090B" stroke-width="2" stroke-linecap="round" stroke-linejoin="round"/>
</svg>
