<svg width="24" height="24" viewBox="0 0 24 24" fill="none" xmlns="http://www.w3.org/2000/svg">
<path d="M11.6002 16.8C11.4952 17.1808 11.3161 17.5372 11.0733 17.8488C10.8305 18.1605 10.5287 18.4212 10.1851 18.6162C9.84156 18.8112 9.46294 18.9367 9.0709 18.9853C8.67885 19.034 8.28105 19.005 7.90022 18.9C7.51938 18.7949 7.16297 18.6159 6.85133 18.3731C6.53969 18.1303 6.27892 17.8285 6.08392 17.4849C5.88892 17.1413 5.7635 16.7627 5.71482 16.3706C5.66614 15.9786 5.69516 15.5808 5.80022 15.2M3 11L21 6V18L3 14V11Z" stroke="#09090B" stroke-width="2" stroke-linecap="round" stroke-linejoin="round"/>
</svg>
