<svg width="24" height="24" viewBox="0 0 24 24" fill="none" xmlns="http://www.w3.org/2000/svg">
<path d="M1.5 8.96667C1.5 6.35309 1.5 5.0463 2.00864 4.04804C2.45605 3.16995 3.16995 2.45605 4.04804 2.00864C5.0463 1.5 6.35309 1.5 8.96667 1.5H15.0333C17.6469 1.5 18.9537 1.5 19.952 2.00864C20.83 2.45605 21.544 3.16995 21.9914 4.04804C22.5 5.0463 22.5 6.35309 22.5 8.96667V15.0333C22.5 17.6469 22.5 18.9537 21.9914 19.952C21.544 20.83 20.83 21.544 19.952 21.9914C18.9537 22.5 17.6469 22.5 15.0333 22.5H8.96667C6.35309 22.5 5.0463 22.5 4.04804 21.9914C3.16995 21.544 2.45605 20.83 2.00864 19.952C1.5 18.9537 1.5 17.6469 1.5 15.0333V8.96667Z" fill="white"/>
<path d="M12.0014 9.33826L9.40577 4.75747C9.49195 4.66973 9.5911 4.61217 9.69026 4.57349C8.92481 4.82541 8.5736 5.68495 8.5736 5.68495L3.83171 14.0511C3.76499 14.3134 3.74646 14.5503 3.7548 14.7588H8.93037L12.0014 9.33826Z" fill="#34A853"/>
<path d="M12.0015 9.33826L15.0725 14.7588H20.2481C20.2564 14.5503 20.2379 14.3134 20.1712 14.0511L15.4293 5.68495C15.4293 5.68495 15.0772 4.82541 14.3126 4.57349C14.4109 4.61217 14.5109 4.66973 14.5971 4.75747L12.0015 9.33826Z" fill="#FBBC05"/>
<path d="M12.0014 9.33832L14.5971 4.75754C14.5109 4.66979 14.4108 4.61223 14.3126 4.57355C14.1995 4.53675 14.0781 4.51222 13.9466 4.50562H13.8094H10.1934H10.0563C9.92563 4.51128 9.80331 4.53581 9.69026 4.57355C9.59203 4.61223 9.49194 4.66979 9.40576 4.75754L12.0014 9.33832Z" fill="#188038"/>
<path d="M8.93141 14.7588L6.3654 19.2877C6.3654 19.2877 6.28014 19.2462 6.16431 19.1603C6.5285 19.4405 6.88249 19.5 6.88249 19.5H16.9603C17.5163 19.5 17.6321 19.2877 17.6321 19.2877C17.634 19.2867 17.6349 19.2858 17.6368 19.2849L15.0726 14.7588H8.93141Z" fill="#4285F4"/>
<path d="M8.93143 14.7588H3.75586C3.78181 15.374 4.04869 15.7334 4.04869 15.7334L4.2433 16.0712C4.2572 16.091 4.26554 16.1024 4.26554 16.1024L4.68904 16.8459L5.63982 18.5008C5.66762 18.5678 5.70006 18.6291 5.73435 18.6876C5.74732 18.7074 5.75937 18.7291 5.77327 18.748C5.77697 18.7537 5.78068 18.7593 5.78439 18.765C5.90208 18.931 6.03367 19.0594 6.16526 19.1603C6.28109 19.2471 6.36635 19.2877 6.36635 19.2877L8.93143 14.7588Z" fill="#1967D2"/>
<path d="M15.0725 14.7588H20.2481C20.2221 15.374 19.9552 15.7334 19.9552 15.7334L19.7606 16.0712C19.7467 16.091 19.7384 16.1024 19.7384 16.1024L19.3149 16.8459L18.3641 18.5008C18.3363 18.5678 18.3039 18.6291 18.2696 18.6876C18.2566 18.7074 18.2446 18.7291 18.2307 18.748C18.227 18.7537 18.2233 18.7593 18.2196 18.765C18.1019 18.931 17.9703 19.0594 17.8387 19.1603C17.7228 19.2471 17.6376 19.2877 17.6376 19.2877L15.0725 14.7588Z" fill="#EA4335"/>
</svg>
