<svg width="24" height="24" viewBox="0 0 24 24" fill="none" xmlns="http://www.w3.org/2000/svg">
<g clip-path="url(#clip0_561_8180)">
<path fill-rule="evenodd" clip-rule="evenodd" d="M4.287 21.9133L1.70748 18.6999C1.08685 17.9267 0.75 16.976 0.75 15.9974V4.36124C0.75 2.89548 1.92269 1.67923 3.43553 1.57594L15.3991 0.759137C16.2682 0.699797 17.1321 0.930818 17.8461 1.41353L22.0494 4.25543C22.8018 4.76414 23.25 5.59574 23.25 6.48319V19.7124C23.25 21.1468 22.0969 22.3345 20.6157 22.4256L7.3375 23.243C6.1555 23.3158 5.01299 22.8178 4.287 21.9133Z" fill="white"/>
<path d="M8.43607 10.1842V10.0318C8.43607 9.64564 8.74535 9.32537 9.14397 9.29876L12.0475 9.10491L16.0628 15.0178V9.82823L15.0293 9.69046V9.6181C15.0293 9.22739 15.3456 8.90501 15.7493 8.88433L18.3912 8.74899V9.12918C18.3912 9.30765 18.2585 9.46031 18.0766 9.49108L17.4408 9.59861V18.0029L16.6429 18.2773C15.9764 18.5065 15.2343 18.2611 14.8527 17.6853L10.9545 11.803V17.4173L12.1544 17.647L12.1377 17.7583C12.0853 18.1069 11.7843 18.3705 11.4202 18.3867L8.43607 18.5195C8.39662 18.1447 8.67758 17.8093 9.06518 17.7686L9.45771 17.7273V10.2416L8.43607 10.1842Z" fill="black"/>
<path fill-rule="evenodd" clip-rule="evenodd" d="M15.5062 2.22521L3.5426 3.04201C2.82599 3.09094 2.27051 3.66706 2.27051 4.36136V15.9975C2.27051 16.6499 2.49507 17.2837 2.90883 17.7992L5.48835 21.0126C5.90541 21.5322 6.56174 21.8183 7.24076 21.7765L20.519 20.9591C21.1995 20.9172 21.7293 20.3716 21.7293 19.7125V6.48332C21.7293 6.07557 21.5234 5.69348 21.1777 5.45975L16.9743 2.61784C16.546 2.32822 16.0277 2.1896 15.5062 2.22521ZM4.13585 4.54287C3.96946 4.41968 4.04865 4.16303 4.25768 4.14804L15.5866 3.33545C15.9476 3.30956 16.3063 3.40896 16.5982 3.61578L18.8713 5.22622C18.9576 5.28736 18.9171 5.41935 18.8102 5.42516L6.8129 6.07764C6.44983 6.09739 6.09144 5.99073 5.80276 5.77699L4.13585 4.54287ZM6.25018 8.12315C6.25018 7.7334 6.56506 7.41145 6.9677 7.38952L19.6523 6.69871C20.0447 6.67734 20.375 6.97912 20.375 7.35898V18.8141C20.375 19.2031 20.0613 19.5247 19.6594 19.5476L7.05516 20.2648C6.61845 20.2896 6.25018 19.954 6.25018 19.5312V8.12315Z" fill="black"/>
</g>
<defs>
<clipPath id="clip0_561_8180">
<rect width="24" height="24" fill="white"/>
</clipPath>
</defs>
</svg>
