<svg width="25" height="25" viewBox="0 0 25 25" fill="none" xmlns="http://www.w3.org/2000/svg">
<path d="M16.3575 19.5597C15.2223 18.7788 13.877 18.3567 12.5106 18.3567C10.6818 18.3567 8.95808 19.0321 7.69682 20.2773C7.02415 20.9527 6.49862 21.7336 6.16228 22.6411L6.01514 22.9999H8.9791L9.06318 22.8733C9.21033 22.6411 9.39952 22.409 9.60973 22.219C10.3665 21.4803 11.3965 21.0582 12.5317 21.0582C13.898 21.0582 15.1593 21.7336 15.9371 22.8733L16.0211 22.9788H19.0061L18.8169 22.6411C18.3124 21.3959 17.4506 20.3406 16.3575 19.5597Z" fill="#2D2D80"/>
<path d="M4.71171 7.69845C4.03904 7.02308 3.26126 6.49544 2.35736 6.15775L2 6.01001V8.98589L2.12613 9.07031C2.35736 9.21805 2.58859 9.408 2.77778 9.61905C3.51351 10.3789 3.93393 11.413 3.93393 12.5527C3.93393 13.9246 3.26126 15.1909 2.12613 15.9718L2 16.0351V19.0321L2.35736 18.8844C3.5976 18.3778 4.66967 17.5125 5.42643 16.415C6.2042 15.2542 6.62462 13.9246 6.62462 12.5316C6.62462 10.6954 5.95195 8.96478 4.71171 7.69845Z" fill="#2D2D80"/>
<path d="M8.66376 5.46131C9.7989 6.24221 11.1442 6.66432 12.5106 6.66432C14.3394 6.66432 16.0632 5.98894 17.3244 4.74372C17.9971 4.06834 18.5226 3.28744 18.859 2.3799L19.0061 2.02111H16.0421L15.9581 2.14774C15.8109 2.3799 15.6217 2.59095 15.4325 2.80201C14.6758 3.5407 13.6247 3.94171 12.5106 3.94171C11.1442 3.94171 9.88298 3.26633 9.1052 2.12663L9.02112 2H6.03613L6.18328 2.3799C6.68778 3.62513 7.54965 4.70151 8.66376 5.46131Z" fill="#2D2D80"/>
<path d="M22.8948 9.09142L22.9999 9.00699V6.01001L22.6425 6.15775C21.4023 6.66428 20.3302 7.52961 19.5734 8.6271C18.7957 9.76679 18.3752 11.1175 18.3752 12.5105C18.3752 14.3467 19.0479 16.0773 20.2882 17.3437C20.9608 18.0191 21.7386 18.5467 22.6425 18.8844L22.9999 19.0321V16.0562L22.8737 15.9718C22.6425 15.8241 22.4113 15.6341 22.2221 15.4231C21.4864 14.6633 21.0659 13.6291 21.0659 12.4894C21.087 11.1387 21.7596 9.85122 22.8948 9.09142Z" fill="#2D2D80"/>
<path d="M15.1802 12.5317C15.1802 14.0302 13.961 15.2543 12.4685 15.2543C10.976 15.2543 9.77783 14.0302 9.77783 12.5317C9.77783 11.0332 10.9971 9.80908 12.4895 9.80908C13.961 9.83019 15.1802 11.0332 15.1802 12.5317Z" fill="#2D2D80"/>
</svg>
