<?xml version="1.0" encoding="UTF-8" standalone="no"?>
<svg
   xmlns:dc="http://purl.org/dc/elements/1.1/"
   xmlns:cc="http://creativecommons.org/ns#"
   xmlns:rdf="http://www.w3.org/1999/02/22-rdf-syntax-ns#"
   xmlns:svg="http://www.w3.org/2000/svg"
   xmlns="http://www.w3.org/2000/svg"
   xmlns:sodipodi="http://sodipodi.sourceforge.net/DTD/sodipodi-0.dtd"
   xmlns:inkscape="http://www.inkscape.org/namespaces/inkscape"
   inkscape:version="1.0beta1 (76ce730, 2019-10-19)"
   height="103.22184"
   width="500.00003"
   sodipodi:docname="Logo UniversiteÌ Gustave Eiffel 2020.svg"
   xml:space="preserve"
   viewBox="0 0 500.00004 103.22184"
   y="0px"
   x="0px"
   id="Calque_1"
   version="1.1"><metadata
   id="metadata908"><rdf:RDF><cc:Work
       rdf:about=""><dc:format>image/svg+xml</dc:format><dc:type
         rdf:resource="http://purl.org/dc/dcmitype/StillImage" /></cc:Work></rdf:RDF></metadata><defs
   id="defs906" /><sodipodi:namedview
   inkscape:current-layer="Calque_1"
   inkscape:window-maximized="0"
   inkscape:window-y="23"
   inkscape:window-x="0"
   inkscape:cy="362.0101"
   inkscape:cx="351.51268"
   inkscape:zoom="0.49497475"
   showgrid="false"
   id="namedview904"
   inkscape:window-height="784"
   inkscape:window-width="1440"
   inkscape:pageshadow="2"
   inkscape:pageopacity="0"
   guidetolerance="10"
   gridtolerance="10"
   objecttolerance="10"
   borderopacity="1"
   inkscape:document-rotation="0"
   bordercolor="#666666"
   pagecolor="#ffffff" />
<style
   id="style833"
   type="text/css">
	.st0{fill:#FFFFFF;}
</style>
<g
   transform="scale(1.026062)"
   style="fill:#2d2d80;fill-opacity:1"
   id="g1014"><path
     inkscape:connector-curvature="0"
     style="opacity:1;fill:#2d2d80;fill-opacity:1;stop-opacity:1"
     id="path835"
     d="M 68.3,83.4 C 62.9,79.7 56.5,77.7 50,77.7 41.3,77.7 33.1,80.9 27.1,86.8 23.9,90 21.4,93.7 19.8,98 l -0.7,1.7 h 14.1 l 0.4,-0.6 c 0.7,-1.1 1.6,-2.2 2.6,-3.1 3.6,-3.5 8.5,-5.5 13.9,-5.5 6.5,0 12.5,3.2 16.2,8.6 l 0.4,0.5 H 80.9 L 80,98 C 77.6,92.1 73.5,87.1 68.3,83.4"
     class="st0" /><path
     inkscape:connector-curvature="0"
     style="opacity:1;fill:#2d2d80;fill-opacity:1;stop-opacity:1"
     id="path837"
     d="M 12.9,27.2 C 9.7,24 6,21.5 1.7,19.9 L 0,19.2 v 14.1 l 0.6,0.4 c 1.1,0.7 2.2,1.6 3.1,2.6 3.5,3.6 5.5,8.5 5.5,13.9 0,6.5 -3.2,12.5 -8.6,16.2 L 0,66.7 V 80.9 L 1.7,80.2 C 7.6,77.8 12.7,73.7 16.3,68.5 20,63 22,56.7 22,50.1 22,41.4 18.8,33.2 12.9,27.2"
     class="st0" /><path
     inkscape:connector-curvature="0"
     style="opacity:1;fill:#2d2d80;fill-opacity:1;stop-opacity:1"
     id="path839"
     d="m 31.7,16.6 c 5.4,3.7 11.8,5.7 18.3,5.7 8.7,0 16.9,-3.2 22.9,-9.1 C 76.1,10 78.6,6.3 80.2,2 L 80.9,0.3 H 66.8 L 66.4,0.9 C 65.7,2 64.8,3 63.9,4 60.3,7.5 55.3,9.4 50,9.4 43.5,9.4 37.5,6.2 33.8,0.8 L 33.4,0.2 H 19.2 L 19.9,2 c 2.4,5.9 6.5,11 11.8,14.6"
     class="st0" /><path
     inkscape:connector-curvature="0"
     style="opacity:1;fill:#2d2d80;fill-opacity:1;stop-opacity:1"
     id="path841"
     d="m 99.4,33.8 0.5,-0.4 V 19.2 l -1.7,0.7 c -5.9,2.4 -11,6.5 -14.6,11.7 -3.7,5.4 -5.7,11.8 -5.7,18.4 0,8.7 3.2,16.9 9.1,22.9 3.2,3.2 6.9,5.7 11.2,7.3 l 1.7,0.7 V 66.8 L 99.3,66.4 C 98.2,65.7 97.1,64.8 96.2,63.8 92.7,60.2 90.7,55.3 90.7,49.9 90.8,43.5 94,37.4 99.4,33.8"
     class="st0" /><path
     inkscape:connector-curvature="0"
     style="opacity:1;fill:#2d2d80;fill-opacity:1;stop-opacity:1"
     id="path843"
     d="M 62.7,50.1 C 62.7,57.2 56.9,63 49.8,63 42.7,63 37,57.2 37,50.1 37,43 42.8,37.2 49.9,37.2 c 7,0.1 12.8,5.8 12.8,12.9"
     class="st0" /></g><g
   transform="scale(1.026062)"
   style="fill:#2d2d80;fill-opacity:1"
   id="g1044"><path
     inkscape:connector-curvature="0"
     style="opacity:1;fill:#2d2d80;fill-opacity:1;stop-opacity:1"
     id="path845"
     d="m 140.1,29.9 c -1.7,-1.8 -2.6,-4 -2.6,-6.7 v -23 h -8 v 23 c 0,4.7 1.6,8.7 4.8,11.8 3.2,3.2 7.2,4.8 12,4.8 4.8,0 8.9,-1.6 12,-4.8 3.2,-3.2 4.8,-7.1 4.8,-11.8 v -23 h -8 v 23 c 0,2.6 -0.9,4.9 -2.6,6.7 -1.7,1.8 -3.8,2.7 -6.2,2.7 -2.4,0 -4.5,-0.9 -6.2,-2.7"
     class="st0" /><path
     inkscape:connector-curvature="0"
     style="opacity:1;fill:#2d2d80;fill-opacity:1;stop-opacity:1"
     id="path847"
     d="m 188.4,19.9 c 1,1 1.5,2.4 1.5,4.2 V 39 h 7.2 V 23.2 c 0,-3.6 -1,-6.5 -2.9,-8.6 -1.9,-2.1 -4.5,-3.2 -7.5,-3.2 -1.5,0 -2.9,0.4 -4.2,1.1 -1.3,0.7 -2.2,1.3 -2.6,1.7 -0.4,0.4 -0.7,0.8 -0.9,1.1 l -0.3,0.4 V 12 h -7.2 v 27 h 7.2 V 25 c 0,-2.1 0.5,-3.7 1.6,-4.9 1,-1.1 2.4,-1.7 4.2,-1.7 1.5,-0.1 2.9,0.5 3.9,1.5"
     class="st0" /><path
     inkscape:connector-curvature="0"
     style="opacity:1;fill:#2d2d80;fill-opacity:1;stop-opacity:1"
     id="path849"
     d="m 208.4,8 c 1.3,0 2.4,-0.4 3.1,-1.1 0.8,-0.7 1.1,-1.7 1.1,-2.9 0,-1.2 -0.4,-2.2 -1.1,-2.9 -0.8,-0.7 -1.8,-1.1 -3.1,-1.1 -1.2,0 -2.2,0.4 -2.9,1.1 -0.7,0.7 -1.1,1.7 -1.1,2.9 0,1.2 0.4,2.2 1.1,2.9 0.7,0.8 1.6,1.1 2.9,1.1"
     class="st0" /><rect
     style="opacity:1;fill:#2d2d80;fill-opacity:1;stop-opacity:1"
     id="rect851"
     height="27"
     width="7.1999998"
     class="st0"
     y="12"
     x="204.89999" /><polygon
     style="opacity:1;fill:#2d2d80;fill-opacity:1;stop-opacity:1"
     id="polygon853"
     points="226.9,39 234.4,39 244.6,12 237.2,12 230.6,30.4 230.5,30 224.1,12 216.7,12 "
     class="st0" /><path
     inkscape:connector-curvature="0"
     style="opacity:1;fill:#2d2d80;fill-opacity:1;stop-opacity:1"
     id="path855"
     d="m 265.6,39 c 1.3,-0.3 2.4,-0.7 3.2,-1.1 0.8,-0.4 1.6,-0.9 2.4,-1.4 0.7,-0.5 1.2,-0.9 1.4,-1.1 L 273,35 269.3,30.3 268.6,31 c -0.5,0.6 -1.3,1.1 -2.6,1.7 -1.2,0.6 -2.6,0.8 -4,0.8 -2,0 -3.7,-0.5 -5,-1.6 -1.3,-1 -2.1,-2.3 -2.4,-3.9 v -0.2 h 19.8 l 0.3,-2.9 c 0,-3.8 -1.3,-7.1 -3.8,-9.6 -2.5,-2.6 -5.8,-3.9 -9.6,-3.9 -3.8,0 -7.2,1.4 -9.9,4.1 -2.7,2.7 -4.1,6.1 -4.1,9.9 0,3.8 1.4,7.2 4.2,9.9 2.8,2.7 6.2,4.1 10.1,4.1 1.3,0.1 2.7,-0.1 4,-0.4 M 254.7,22.6 c 0.5,-1.5 1.3,-2.8 2.4,-3.7 1.1,-0.9 2.5,-1.4 4.2,-1.4 1.6,0 3,0.5 4.2,1.5 1.1,1 1.8,2.2 2.1,3.7 v 0.2 h -13 z"
     class="st0" /><path
     inkscape:connector-curvature="0"
     style="opacity:1;fill:#2d2d80;fill-opacity:1;stop-opacity:1"
     id="path857"
     d="m 296.7,18.8 v -7.1 h -0.9 c -1.5,0 -2.9,0.3 -4.2,1 -1.3,0.7 -2.2,1.2 -2.6,1.6 -0.4,0.4 -0.7,0.7 -0.9,1 l -0.3,0.3 V 12 h -7.2 v 27 h 7.2 V 26 c 0,-2.4 0.6,-4.2 1.8,-5.5 1.2,-1.3 2.8,-1.9 4.8,-1.9 1,0 1.8,0.1 2.3,0.2"
     class="st0" /><path
     inkscape:connector-curvature="0"
     style="opacity:1;fill:#2d2d80;fill-opacity:1;stop-opacity:1"
     id="path859"
     d="m 319.4,26.9 c -0.8,-1.1 -1.9,-1.9 -3.1,-2.4 -1.2,-0.5 -2.5,-1 -3.7,-1.3 -1.2,-0.4 -2.3,-0.8 -3.2,-1.3 -0.9,-0.5 -1.4,-1.1 -1.4,-1.9 0,-0.6 0.3,-1.2 1,-1.7 0.6,-0.5 1.5,-0.7 2.5,-0.7 0.8,0 1.7,0.2 2.5,0.6 0.8,0.4 1.3,0.8 1.6,1 0.2,0.2 0.3,0.3 0.4,0.5 l 3.7,-4.2 -0.9,-0.9 c -0.6,-0.6 -1.7,-1.3 -3.2,-2 -1.6,-0.7 -3.3,-1 -5.1,-1 -2.9,0 -5.4,0.9 -7.4,2.6 -2,1.7 -3,3.7 -3,5.8 0,1.6 0.4,3 1.2,4.1 0.8,1.1 1.9,1.9 3.1,2.4 1.2,0.5 2.5,1 3.7,1.3 1.3,0.4 2.3,0.8 3.2,1.3 0.9,0.5 1.4,1.2 1.4,2 0,0.8 -0.3,1.5 -1,1.9 -0.6,0.5 -1.6,0.7 -2.8,0.7 -1.1,0 -2.2,-0.3 -3.2,-0.9 -1,-0.6 -1.7,-1 -2,-1.4 -0.2,-0.3 -0.4,-0.5 -0.6,-0.7 l -4,3.9 0.3,0.5 c 0.3,0.3 0.7,0.7 1.3,1.2 0.6,0.5 1.3,1 2.1,1.4 0.8,0.5 1.9,0.9 3.1,1.2 1.3,0.3 2.7,0.5 4.1,0.5 3.3,0 6,-0.8 7.8,-2.4 1.9,-1.6 2.8,-3.6 2.8,-6 0,-1.6 -0.4,-3 -1.2,-4.1"
     class="st0" /><path
     inkscape:connector-curvature="0"
     style="opacity:1;fill:#2d2d80;fill-opacity:1;stop-opacity:1"
     id="path861"
     d="m 330.2,8 c 1.3,0 2.4,-0.4 3.1,-1.1 0.8,-0.7 1.1,-1.7 1.1,-2.9 0,-1.2 -0.4,-2.2 -1.1,-2.9 C 332.5,0.4 331.5,0 330.2,0 329,0 328,0.4 327.3,1.1 c -0.7,0.7 -1.1,1.7 -1.1,2.9 0,1.2 0.4,2.2 1.1,2.9 0.7,0.8 1.7,1.1 2.9,1.1"
     class="st0" /><rect
     style="opacity:1;fill:#2d2d80;fill-opacity:1;stop-opacity:1"
     id="rect863"
     height="27"
     width="7.1999998"
     class="st0"
     y="12"
     x="326.79999" /><path
     inkscape:connector-curvature="0"
     style="opacity:1;fill:#2d2d80;fill-opacity:1;stop-opacity:1"
     id="path865"
     d="m 355,33.2 c -1,0 -1.8,-0.3 -2.5,-0.9 -0.7,-0.6 -1,-1.4 -1,-2.3 V 19 h 5.5 v -6.4 h -5.5 V 3.9 h -6.4 v 4.8 c 0,1.1 -0.3,2 -0.9,2.7 -0.6,0.7 -1.4,1.1 -2.3,1.1 h -2.3 v 6.4 h 4.7 v 11.3 c 0,6.3 2.8,9.3 8.5,9.3 h 0.2 c 1.7,0 3.3,-0.3 4.7,-0.8 v -6.1 h -0.1 c -0.2,0.1 -0.6,0.2 -1.1,0.3 -0.5,0.2 -1,0.3 -1.5,0.3"
     class="st0" /><path
     inkscape:connector-curvature="0"
     style="opacity:1;fill:#2d2d80;fill-opacity:1;stop-opacity:1"
     id="path867"
     d="m 374.5,11.4 c -3.8,0 -7.2,1.4 -9.9,4.1 -2.7,2.7 -4.1,6.1 -4.1,9.9 0,3.8 1.4,7.2 4.2,9.9 2.8,2.7 6.2,4.1 10.1,4.1 1.4,0 2.8,-0.2 4.1,-0.5 1.3,-0.3 2.4,-0.7 3.2,-1.1 0.8,-0.4 1.6,-0.9 2.3,-1.4 0.7,-0.5 1.2,-0.9 1.4,-1.1 l 0.4,-0.4 -3.7,-4.7 -0.7,0.7 c -0.5,0.6 -1.4,1.1 -2.6,1.7 -1.2,0.6 -2.6,0.8 -4,0.8 -2,0 -3.7,-0.5 -5,-1.6 -1.3,-1 -2.1,-2.3 -2.4,-3.9 v -0.2 h 19.8 l 0.3,-2.9 c 0,-3.8 -1.3,-7.1 -3.8,-9.6 -2.5,-2.5 -5.8,-3.8 -9.6,-3.8 m -6.6,11.5 0.1,-0.2 c 0.5,-1.5 1.3,-2.8 2.4,-3.7 1.1,-0.9 2.5,-1.4 4.2,-1.4 1.6,0 3,0.5 4.2,1.5 1.1,1 1.8,2.2 2.1,3.7 V 23 h -13 z"
     class="st0" /><polygon
     style="opacity:1;fill:#2d2d80;fill-opacity:1;stop-opacity:1"
     id="polygon869"
     points="372,8 377.8,8 383.6,0 376.3,0 "
     class="st0" /><path
     inkscape:connector-curvature="0"
     style="opacity:1;fill:#2d2d80;fill-opacity:1;stop-opacity:1"
     id="path871"
     d="m 157.4,90.2 v 0 l -0.9,0.8 c -0.6,0.5 -1.6,1.1 -3.1,1.6 -1.5,0.5 -3.1,0.8 -4.8,0.8 -3.7,0 -6.8,-1.3 -9.3,-3.7 -2.5,-2.5 -3.7,-5.6 -3.7,-9.3 0,-3.7 1.3,-6.8 3.7,-9.3 2.5,-2.5 5.6,-3.7 9.3,-3.7 1.3,0 2.7,0.2 3.9,0.6 1.3,0.4 2.3,0.9 3.1,1.4 0.8,0.5 1.5,1.1 2.2,1.7 0.7,0.6 1.1,1.1 1.3,1.4 l 0.1,0.1 c 0.1,0.1 0.2,0.3 0.3,0.4 l 5.1,-5.1 -0.5,-0.7 c -0.4,-0.5 -1,-1.1 -1.9,-1.9 -0.9,-0.8 -2,-1.5 -3.1,-2.3 -1.2,-0.7 -2.7,-1.4 -4.5,-1.9 -1.8,-0.5 -3.8,-0.8 -5.8,-0.8 -5.9,0 -10.9,2 -14.9,5.9 -4,3.9 -6.1,8.7 -6.1,14.2 0,5.5 2,10.3 6.1,14.3 4,3.9 9.1,5.9 14.9,5.9 2,0 4.1,-0.3 6,-0.8 1.9,-0.5 3.5,-1.1 4.7,-1.8 1.2,-0.7 2.3,-1.4 3.4,-2.3 1.1,-0.9 1.8,-1.5 2.1,-1.8 0.3,-0.3 0.5,-0.6 0.6,-0.7 V 78.9 h -15 v 5.8 h 7 v 5.5 z"
     class="st0" /><path
     inkscape:connector-curvature="0"
     style="opacity:1;fill:#2d2d80;fill-opacity:1;stop-opacity:1"
     id="path873"
     d="m 181.9,92.1 c -1,-1 -1.6,-2.3 -1.6,-3.9 V 72.7 h -7.2 v 16.2 c 0,3.4 1,6.2 2.9,8.3 1.9,2 4.4,3.1 7.5,3.1 1.5,0 2.9,-0.3 4.2,-0.9 1.3,-0.6 2.2,-1.1 2.6,-1.4 0.4,-0.4 0.7,-0.7 0.9,-0.9 l 0.3,-0.3 v 3.1 h 7.2 v -27 h -7.2 v 14.3 c 0,2.1 -0.5,3.7 -1.6,4.8 -1,1.1 -2.4,1.7 -4.2,1.7 -1.4,-0.1 -2.8,-0.6 -3.8,-1.6"
     class="st0" /><path
     inkscape:connector-curvature="0"
     style="opacity:1;fill:#2d2d80;fill-opacity:1;stop-opacity:1"
     id="path875"
     d="m 221.7,85.2 c -1.2,-0.5 -2.5,-1 -3.7,-1.3 -1.2,-0.4 -2.3,-0.8 -3.1,-1.3 -0.9,-0.5 -1.4,-1.2 -1.4,-1.9 0,-0.6 0.3,-1.2 1,-1.7 0.6,-0.5 1.5,-0.7 2.5,-0.7 0.8,0 1.7,0.2 2.5,0.6 0.8,0.4 1.3,0.8 1.6,1 0.2,0.2 0.3,0.3 0.4,0.5 l 3.7,-4.2 -0.9,-0.9 c -0.6,-0.6 -1.7,-1.3 -3.3,-2 -1.6,-0.7 -3.3,-1 -5.1,-1 -2.9,0 -5.4,0.9 -7.4,2.6 -2,1.7 -3,3.7 -3,5.8 0,1.6 0.4,3 1.2,4.1 0.8,1.1 1.9,1.9 3.1,2.4 1.2,0.5 2.5,1 3.7,1.3 1.3,0.4 2.3,0.8 3.2,1.3 0.9,0.5 1.4,1.2 1.4,2 0,0.8 -0.3,1.5 -1,1.9 -0.6,0.5 -1.6,0.7 -2.8,0.7 -1.1,0 -2.2,-0.3 -3.2,-0.9 -1,-0.6 -1.7,-1 -2,-1.4 -0.2,-0.3 -0.4,-0.5 -0.6,-0.7 l -4,3.9 0.3,0.5 c 0.3,0.3 0.7,0.7 1.3,1.2 0.6,0.5 1.3,1 2.1,1.4 0.8,0.5 1.9,0.9 3.1,1.2 1.3,0.3 2.7,0.5 4.1,0.5 3.3,0 6,-0.8 7.9,-2.4 1.9,-1.6 2.8,-3.6 2.8,-6 0,-1.7 -0.4,-3.1 -1.2,-4.2 -1,-1 -2,-1.8 -3.2,-2.3"
     class="st0" /><path
     inkscape:connector-curvature="0"
     style="opacity:1;fill:#2d2d80;fill-opacity:1;stop-opacity:1"
     id="path877"
     d="m 242.6,93 c -0.7,-0.6 -1,-1.4 -1,-2.3 v -11 h 5.6 v -6.4 h -5.6 v -8.6 h -6.4 v 4.8 c 0,1.1 -0.3,2 -0.9,2.7 -0.6,0.7 -1.4,1.1 -2.3,1.1 h -2.3 v 6.4 h 4.7 V 91 c 0,6.3 2.8,9.3 8.5,9.3 h 0.2 c 1.7,0 3.3,-0.3 4.7,-0.8 v -6.1 h -0.1 c -0.2,0.1 -0.6,0.2 -1.1,0.3 -0.5,0.1 -1,0.2 -1.5,0.2 -1,0 -1.9,-0.3 -2.5,-0.9"
     class="st0" /><path
     inkscape:connector-curvature="0"
     style="opacity:1;fill:#2d2d80;fill-opacity:1;stop-opacity:1"
     id="path879"
     d="m 264,72.2 c -1.3,0 -2.6,0.2 -3.8,0.6 -1.2,0.4 -2.3,0.8 -3,1.3 -0.7,0.4 -1.5,1 -2.1,1.6 -0.7,0.6 -1.1,1 -1.3,1.2 V 77 c -0.1,0.2 -0.2,0.3 -0.3,0.4 l 3.9,3.9 0.5,-0.5 c 0.4,-0.5 1.2,-1 2.2,-1.5 1,-0.5 2.2,-0.7 3.4,-0.7 1.5,0 2.7,0.4 3.6,1.1 0.9,0.8 1.3,1.7 1.3,2.9 v 0.1 h -0.1 l -8.7,1.6 c -2.5,0.4 -4.4,1.4 -5.8,2.9 -1.4,1.4 -2.1,3.3 -2.1,5.5 0,2.1 0.8,3.9 2.5,5.4 1.7,1.5 3.9,2.2 6.5,2.2 1.4,0 2.7,-0.3 4,-0.9 1.3,-0.6 2.1,-1.1 2.5,-1.4 0.4,-0.4 0.7,-0.7 0.9,-0.9 l 0.3,-0.3 v 3.1 h 7.2 v -17 c 0,-3.1 -1.1,-5.6 -3.2,-7.6 -2.2,-2.1 -5,-3.1 -8.4,-3.1 m 4.4,16 c 0,2 -0.5,3.5 -1.6,4.6 -1,1.1 -2.4,1.7 -4.2,1.7 -2.5,0 -3.8,-1 -3.8,-2.9 0,-1.8 1.1,-2.9 3.2,-3.2 l 6.3,-1.2 v 1 z"
     class="st0" /><polygon
     style="opacity:1;fill:#2d2d80;fill-opacity:1;stop-opacity:1"
     id="polygon881"
     points="307.7,72.7 300.3,72.7 293.8,91.2 293.6,90.8 287.3,72.7 279.8,72.7 290,99.7 297.6,99.7 "
     class="st0" /><path
     inkscape:connector-curvature="0"
     style="opacity:1;fill:#2d2d80;fill-opacity:1;stop-opacity:1"
     id="path883"
     d="m 324.4,72.2 c -3.8,0 -7.2,1.4 -9.9,4.1 -2.7,2.7 -4.1,6.1 -4.1,9.9 0,3.8 1.4,7.2 4.2,9.9 2.8,2.7 6.2,4.1 10.1,4.1 1.4,0 2.8,-0.2 4.1,-0.5 1.3,-0.3 2.4,-0.7 3.2,-1.1 0.8,-0.4 1.6,-0.9 2.3,-1.4 0.8,-0.6 1.2,-0.9 1.4,-1.1 l 0.4,-0.4 -3.7,-4.7 -0.7,0.7 c -0.5,0.6 -1.3,1.1 -2.6,1.7 -1.2,0.6 -2.6,0.8 -4,0.8 -2,0 -3.7,-0.5 -5,-1.6 -1.3,-1 -2.1,-2.3 -2.4,-3.9 v -0.2 h 19.8 l 0.3,-2.9 c 0,-3.8 -1.3,-7.1 -3.8,-9.6 -2.5,-2.5 -5.8,-3.8 -9.6,-3.8 m -6.7,11.4 0.1,-0.2 c 0.5,-1.5 1.3,-2.8 2.4,-3.7 1.1,-0.9 2.5,-1.4 4.2,-1.4 1.6,0 3,0.5 4.2,1.5 1.1,1 1.8,2.2 2.1,3.7 v 0.2 h -13 z"
     class="st0" /><polygon
     style="opacity:1;fill:#2d2d80;fill-opacity:1;stop-opacity:1"
     id="polygon885"
     points="385.2,68.2 385.2,61 356.8,61 356.8,99.7 385.7,99.7 385.7,92.6 364.8,92.6 364.8,83.6 380.7,83.6 380.7,76.4 364.8,76.4 364.8,68.2 "
     class="st0" /><rect
     style="opacity:1;fill:#2d2d80;fill-opacity:1;stop-opacity:1"
     id="rect887"
     height="27"
     width="7.1999998"
     class="st0"
     y="72.699997"
     x="392.39999" /><path
     inkscape:connector-curvature="0"
     style="opacity:1;fill:#2d2d80;fill-opacity:1;stop-opacity:1"
     id="path889"
     d="m 395.9,60.8 c -1.2,0 -2.2,0.4 -2.9,1.1 -0.7,0.7 -1.1,1.7 -1.1,2.9 0,1.2 0.4,2.2 1.1,2.9 0.7,0.7 1.7,1.1 2.9,1.1 1.3,0 2.4,-0.4 3.1,-1.1 0.8,-0.7 1.1,-1.7 1.1,-2.9 0,-1.2 -0.4,-2.2 -1.1,-2.9 -0.7,-0.8 -1.8,-1.1 -3.1,-1.1"
     class="st0" /><path
     inkscape:connector-curvature="0"
     style="opacity:1;fill:#2d2d80;fill-opacity:1;stop-opacity:1"
     id="path891"
     d="m 399,67.7 c -0.8,0.7 -1.8,1.1 -3.1,1.1 -1.2,0 -2.2,-0.4 -2.9,-1.1 -0.7,-0.7 -1.1,-1.7 -1.1,-2.9 0,-1.2 0.4,-2.2 1.1,-2.9 0.7,-0.7 1.7,-1.1 2.9,-1.1 1.3,0 2.4,0.4 3.1,1.1 0.8,0.7 1.1,1.7 1.1,2.9 0,1.2 -0.3,2.2 -1.1,2.9"
     class="st0" /><path
     inkscape:connector-curvature="0"
     style="opacity:1;fill:#2d2d80;fill-opacity:1;stop-opacity:1"
     id="path893"
     d="m 420,60.7 c -0.8,-0.1 -1.7,-0.2 -2.4,-0.2 -5.7,0 -8.5,3 -8.5,9.3 v 3.8 h -3.9 V 80 h 3.9 v 19.8 h 7.2 V 79.9 h 6.1 v -6.4 h -6.1 V 70 c 0,-0.9 0.3,-1.7 1,-2.3 0.7,-0.6 1.5,-0.9 2.5,-0.9 1,0 1.9,0.2 2.6,0.5 v -6 l -0.5,-0.2 c -0.4,-0.1 -1,-0.2 -1.9,-0.4"
     class="st0" /><path
     inkscape:connector-curvature="0"
     style="opacity:1;fill:#2d2d80;fill-opacity:1;stop-opacity:1"
     id="path895"
     d="m 440.4,60.7 c -0.8,-0.1 -1.7,-0.2 -2.4,-0.2 -5.7,0 -8.5,3 -8.5,9.3 v 3.8 h -3.9 V 80 h 3.9 v 19.8 h 7.2 V 79.9 h 6.1 v -6.4 h -6.1 V 70 c 0,-0.9 0.3,-1.7 1,-2.3 0.7,-0.6 1.5,-0.9 2.5,-0.9 1,0 1.9,0.2 2.6,0.5 v -6 l -0.5,-0.2 c -0.5,-0.1 -1.1,-0.2 -1.9,-0.4"
     class="st0" /><path
     inkscape:connector-curvature="0"
     style="opacity:1;fill:#2d2d80;fill-opacity:1;stop-opacity:1"
     id="path897"
     d="m 460.5,72.2 c -3.8,0 -7.2,1.4 -9.9,4.1 -2.7,2.7 -4.1,6.1 -4.1,9.9 0,3.8 1.4,7.2 4.2,9.9 2.8,2.7 6.2,4.1 10.1,4.1 1.4,0 2.8,-0.2 4.1,-0.5 1.3,-0.3 2.4,-0.7 3.2,-1.1 0.8,-0.4 1.6,-0.9 2.3,-1.4 0.8,-0.6 1.2,-0.9 1.4,-1.1 l 0.4,-0.4 -3.7,-4.7 -0.7,0.7 c -0.5,0.6 -1.3,1.1 -2.6,1.7 -1.2,0.6 -2.6,0.8 -4,0.8 -2,0 -3.7,-0.5 -5,-1.6 -1.3,-1 -2.1,-2.3 -2.4,-3.9 v -0.2 h 19.8 l 0.3,-2.9 c 0,-3.8 -1.3,-7.1 -3.8,-9.6 -2.6,-2.5 -5.8,-3.8 -9.6,-3.8 m -6.7,11.4 0.1,-0.2 c 0.5,-1.5 1.3,-2.8 2.4,-3.7 1.1,-0.9 2.5,-1.4 4.2,-1.4 1.6,0 3,0.5 4.2,1.5 1.1,1 1.8,2.2 2.1,3.7 v 0.2 h -13 z"
     class="st0" /><rect
     style="opacity:1;fill:#2d2d80;fill-opacity:1;stop-opacity:1"
     id="rect899"
     height="38.700001"
     width="7.1999998"
     class="st0"
     y="61"
     x="480.10001" /></g>
</svg>
